<svg width="38" height="40" viewBox="0 0 38 40" fill="none" xmlns="http://www.w3.org/2000/svg">
<g clip-path="url(#clip0_2_43)">
<path d="M21.7143 -0.45639C12.7246 -0.45639 5.42859 7.07417 5.42859 16.3529C5.42859 25.6316 12.7246 33.1622 21.7143 33.1622C30.704 33.1622 38 25.6316 38 16.3529C38 7.07417 30.704 -0.45639 21.7143 -0.45639ZM29.8572 16.3529C29.8572 17.2813 29.1046 18.0338 28.1762 18.0338H26.6C24.8011 18.0338 23.3429 19.4921 23.3429 21.291V23.129C23.3429 24.0284 22.6137 24.7575 21.7143 24.7575C20.8149 24.7575 20.0857 24.0284 20.0857 23.129V21.291C20.0857 19.4921 18.6275 18.0338 16.8286 18.0338H15.2524C14.324 18.0338 13.5714 17.2813 13.5714 16.3529C13.5714 15.4245 14.324 14.672 15.2524 14.672H16.8286C18.6275 14.672 20.0857 13.2137 20.0857 11.4148V9.57683C20.0857 8.67739 20.8149 7.94826 21.7143 7.94826C22.6137 7.94826 23.3429 8.67739 23.3429 9.57683V11.4148C23.3429 13.2137 24.8011 14.672 26.6 14.672H28.1762C29.1046 14.672 29.8572 15.4245 29.8572 16.3529Z" fill="#0E803C"/>
</g>
<defs>
<clipPath id="clip0_2_43">
<rect width="38" height="40" fill="white"/>
</clipPath>
</defs>
</svg>
