<svg width="35" height="42" viewBox="0 0 35 42" fill="none" xmlns="http://www.w3.org/2000/svg">
<g clip-path="url(#clip0_2_111)">
<path d="M22.6042 24.5H21.4521L21.0438 24.0275C22.4729 22.0325 23.3333 19.4425 23.3333 16.625C23.3333 10.3425 19.0896 5.25 13.8542 5.25C8.61875 5.25 4.375 10.3425 4.375 16.625C4.375 22.9075 8.61875 28 13.8542 28C16.2021 28 18.3604 26.9675 20.0229 25.2525L20.4167 25.7425V27.125L27.7083 35.8575L29.8813 33.25L22.6042 24.5ZM13.8542 24.5C10.2229 24.5 7.29167 20.9825 7.29167 16.625C7.29167 12.2675 10.2229 8.75 13.8542 8.75C17.4854 8.75 20.4167 12.2675 20.4167 16.625C20.4167 20.9825 17.4854 24.5 13.8542 24.5Z" fill="black" fill-opacity="0.4"/>
</g>
<defs>
<clipPath id="clip0_2_111">
<rect width="35" height="42" fill="white"/>
</clipPath>
</defs>
</svg>
