<svg width="40" height="50" viewBox="0 0 40 50" fill="none" xmlns="http://www.w3.org/2000/svg">
<path d="M12 39.3333C9.8 39.3333 8.02 41.5458 8.02 44.25C8.02 46.9542 9.8 49.1667 12 49.1667C14.2 49.1667 16 46.9542 16 44.25C16 41.5458 14.2 39.3333 12 39.3333ZM0 0V4.91667H4L11.2 23.5754L8.5 29.5983C8.18 30.2867 8 31.0979 8 31.9583C8 34.6625 9.8 36.875 12 36.875H36V31.9583H12.84C12.56 31.9583 12.34 31.6879 12.34 31.3438L12.4 31.0488L14.2 27.0417H29.1C30.6 27.0417 31.92 26.0338 32.6 24.5096L39.76 8.555C39.92 8.21083 40 7.79292 40 7.375C40 6.02292 39.1 4.91667 38 4.91667H8.42L6.54 0H0ZM32 39.3333C29.8 39.3333 28.02 41.5458 28.02 44.25C28.02 46.9542 29.8 49.1667 32 49.1667C34.2 49.1667 36 46.9542 36 44.25C36 41.5458 34.2 39.3333 32 39.3333Z" fill="#462B9C"/>
</svg>
