<svg width="33" height="34" viewBox="0 0 33 34" fill="none" xmlns="http://www.w3.org/2000/svg">
<path d="M16.4705 0C7.37878 0 0 7.616 0 17C0 26.384 7.37878 34 16.4705 34C25.5622 34 32.941 26.384 32.941 17C32.941 7.616 25.5622 0 16.4705 0ZM24.7057 17C24.7057 17.9389 23.9446 18.7 23.0057 18.7H21.4116C19.5923 18.7 18.1175 20.1748 18.1175 21.9941V23.853C18.1175 24.7626 17.3801 25.5 16.4705 25.5C15.5608 25.5 14.8234 24.7626 14.8234 23.853V21.9941C14.8234 20.1748 13.3486 18.7 11.5293 18.7H9.93524C8.99636 18.7 8.23524 17.9389 8.23524 17C8.23524 16.0611 8.99636 15.3 9.93524 15.3H11.5293C13.3486 15.3 14.8234 13.8252 14.8234 12.0059V10.147C14.8234 9.23741 15.5608 8.5 16.4705 8.5C17.3801 8.5 18.1175 9.23741 18.1175 10.147V12.0059C18.1175 13.8252 19.5923 15.3 21.4116 15.3H23.0057C23.9446 15.3 24.7057 16.0611 24.7057 17Z" fill="#0E803C"/>
</svg>
